STARTFONT 2.1
FONT -thai-dbthaitext-medium-r-normal--33-240-100-100-p-100-tis620-0
SIZE 24 100 100
FONTBOUNDINGBOX 44 38 -11 -14
STARTPROPERTIES 25
FOUNDRY "thai"
FAMILY_NAME "dbthaitext"
WEIGHT_NAME "medium"
SLANT "r"
SETWIDTH_NAME "normal"
ADD_STYLE_NAME ""
PIXEL_SIZE 33
POINT_SIZE 240
RESOLUTION_X 100
RESOLUTION_Y 100
SPACING "p"
AVERAGE_WIDTH 100
CHARSET_REGISTRY "tis620"
CHARSET_ENCODING "0"
FONT "-thai-dbthaitext-medium-r-normal--33-240-100-100-p-100-tis620-0"
COPYRIGHT "Typeface (c) The Monotype Corporation plc. Data (c) The Monotype Corporation plc/Type Solutions Inc. 1990-1992. All Rights Reserved"
RAW_PIXELSIZE 1000
RAW_POINTSIZE 723
RAW_ASCENT 736
RAW_DESCENT 415
RAW_AVERAGE_WIDTH 2994
FACE_NAME "DBThaiTexthickne5"
DEFAULT_CHAR 0
FONT_ASCENT 24
FONT_DESCENT 14
ENDPROPERTIES
CHARS 190
STARTCHAR space
ENCODING 32
SWIDTH 240 0
DWIDTH 8 0
BBX 0 0 0 0
BITMAP
ENDCHAR
STARTCHAR exclam
ENCODING 33
SWIDTH 180 0
DWIDTH 6 0
BBX 1 15 3 0
BITMAP
80
80
80
80
80
80
80
80
80
80
80
80
00
80
80
ENDCHAR
STARTCHAR quotedbl
ENCODING 34
SWIDTH 210 0
DWIDTH 7 0
BBX 5 5 1 9
BITMAP
88
88
88
88
88
ENDCHAR
STARTCHAR numbersign
ENCODING 35
SWIDTH 330 0
DWIDTH 11 0
BBX 11 14 0 0
BITMAP
0cc0
08c0
1880
1980
7fe0
1180
1180
1180
3300
ffc0
3300
3300
2300
6600
ENDCHAR
STARTCHAR dollar
ENCODING 36
SWIDTH 330 0
DWIDTH 11 0
BBX 9 17 1 -2
BITMAP
0800
3e00
6b00
c900
c980
c800
e800
7c00
1f00
0980
0880
8880
c980
cb00
7e00
0800
0800
ENDCHAR
STARTCHAR percent
ENCODING 37
SWIDTH 540 0
DWIDTH 18 0
BBX 17 14 0 0
BITMAP
381800
7c1000
c63000
862000
c66000
7c4000
38c000
018400
019f00
033180
022180
063180
043980
0c1f00
ENDCHAR
STARTCHAR ampersand
ENCODING 38
SWIDTH 390 0
DWIDTH 13 0
BBX 12 14 1 0
BITMAP
1f00
3b80
3180
3180
3b80
1f00
1c00
7640
e340
e1c0
c180
e0c0
7fe0
3f60
ENDCHAR
STARTCHAR apostrophe
ENCODING 39
SWIDTH 120 0
DWIDTH 4 0
BBX 1 5 1 9
BITMAP
80
80
80
80
80
ENDCHAR
STARTCHAR parenleft
ENCODING 40
SWIDTH 210 0
DWIDTH 7 0
BBX 4 19 2 -4
BITMAP
30
20
20
40
40
40
80
80
80
80
80
80
80
40
40
40
40
20
20
ENDCHAR
STARTCHAR parenright
ENCODING 41
SWIDTH 210 0
DWIDTH 7 0
BBX 4 19 1 -4
BITMAP
80
c0
40
60
20
20
30
30
10
10
10
10
30
20
20
60
40
40
80
ENDCHAR
STARTCHAR asterisk
ENCODING 42
SWIDTH 240 0
DWIDTH 8 0
BBX 6 7 1 9
BITMAP
20
20
20
fc
30
50
48
ENDCHAR
STARTCHAR plus
ENCODING 43
SWIDTH 360 0
DWIDTH 12 0
BBX 10 9 1 0
BITMAP
0800
0800
0800
0800
ffc0
0800
0800
0800
0800
ENDCHAR
STARTCHAR comma
ENCODING 44
SWIDTH 180 0
DWIDTH 6 0
BBX 3 5 1 -2
BITMAP
40
e0
e0
20
c0
ENDCHAR
STARTCHAR minus
ENCODING 45
SWIDTH 210 0
DWIDTH 7 0
BBX 5 1 1 5
BITMAP
f8
ENDCHAR
STARTCHAR period
ENCODING 46
SWIDTH 180 0
DWIDTH 6 0
BBX 3 3 1 0
BITMAP
e0
e0
40
ENDCHAR
STARTCHAR slash
ENCODING 47
SWIDTH 180 0
DWIDTH 6 0
BBX 6 14 0 0
BITMAP
04
08
08
08
10
10
10
20
20
20
40
40
40
80
ENDCHAR
STARTCHAR 0
ENCODING 48
SWIDTH 270 0
DWIDTH 9 0
BBX 8 12 1 0
BITMAP
3c
7e
42
c3
c3
c3
c3
c3
c3
c3
66
3c
ENDCHAR
STARTCHAR 1
ENCODING 49
SWIDTH 270 0
DWIDTH 9 0
BBX 4 12 2 0
BITMAP
10
30
f0
f0
10
10
10
10
10
10
10
10
ENDCHAR
STARTCHAR 2
ENCODING 50
SWIDTH 270 0
DWIDTH 9 0
BBX 8 12 1 0
BITMAP
3c
66
43
c1
03
02
0c
38
60
40
c0
ff
ENDCHAR
STARTCHAR 3
ENCODING 51
SWIDTH 270 0
DWIDTH 9 0
BBX 7 12 1 0
BITMAP
38
ec
82
82
04
1c
1c
02
02
82
c4
7c
ENDCHAR
STARTCHAR 4
ENCODING 52
SWIDTH 270 0
DWIDTH 9 0
BBX 9 12 0 0
BITMAP
0200
0600
0e00
0a00
1200
2200
6200
4200
ff80
0200
0200
0200
ENDCHAR
STARTCHAR 5
ENCODING 53
SWIDTH 270 0
DWIDTH 9 0
BBX 8 12 1 0
BITMAP
7e
40
40
40
7c
66
c3
03
03
c3
c6
7c
ENDCHAR
STARTCHAR 6
ENCODING 54
SWIDTH 270 0
DWIDTH 9 0
BBX 8 12 1 0
BITMAP
1c
76
43
c0
c0
be
c2
c3
c3
c3
62
3e
ENDCHAR
STARTCHAR 7
ENCODING 55
SWIDTH 270 0
DWIDTH 9 0
BBX 8 12 1 0
BITMAP
ff
03
02
04
04
08
18
10
10
30
20
20
ENDCHAR
STARTCHAR 8
ENCODING 56
SWIDTH 270 0
DWIDTH 9 0
BBX 8 12 1 0
BITMAP
3c
46
c2
42
42
3c
66
c3
83
c3
c2
7e
ENDCHAR
STARTCHAR 9
ENCODING 57
SWIDTH 270 0
DWIDTH 9 0
BBX 8 12 1 0
BITMAP
3c
66
c2
c3
c3
c3
6f
3b
03
c3
c6
7c
ENDCHAR
STARTCHAR colon
ENCODING 58
SWIDTH 180 0
DWIDTH 6 0
BBX 3 11 1 0
BITMAP
e0
e0
00
00
00
00
00
00
e0
e0
40
ENDCHAR
STARTCHAR semicolon
ENCODING 59
SWIDTH 180 0
DWIDTH 6 0
BBX 3 13 1 -2
BITMAP
c0
c0
40
00
00
00
00
00
40
e0
60
20
40
ENDCHAR
STARTCHAR less
ENCODING 60
SWIDTH 360 0
DWIDTH 12 0
BBX 10 9 1 0
BITMAP
00c0
0780
1e00
f000
c000
7800
1e00
03c0
00c0
ENDCHAR
STARTCHAR equal
ENCODING 61
SWIDTH 360 0
DWIDTH 12 0
BBX 10 5 1 2
BITMAP
ffc0
0000
0000
0000
ffc0
ENDCHAR
STARTCHAR greater
ENCODING 62
SWIDTH 360 0
DWIDTH 12 0
BBX 10 9 1 0
BITMAP
c000
7800
1e00
03c0
00c0
0780
1e00
f000
c000
ENDCHAR
STARTCHAR question
ENCODING 63
SWIDTH 330 0
DWIDTH 11 0
BBX 8 16 2 0
BITMAP
38
7c
fe
c3
83
83
03
06
0c
18
18
10
00
00
10
10
ENDCHAR
STARTCHAR at
ENCODING 64
SWIDTH 600 0
DWIDTH 20 0
BBX 18 19 1 -3
BITMAP
01e000
03f000
07fc00
1c0e00
380300
300180
61ecc0
4318c0
c618c0
8418c0
8c10c0
8c3080
cc3180
c77f00
639e00
700000
380000
0e1800
03f000
ENDCHAR
STARTCHAR A
ENCODING 65
SWIDTH 390 0
DWIDTH 13 0
BBX 13 15 0 0
BITMAP
0700
0700
0f80
0d80
0d80
1cc0
18c0
18c0
30e0
3fe0
2020
6030
6030
c030
c038
ENDCHAR
STARTCHAR B
ENCODING 66
SWIDTH 390 0
DWIDTH 13 0
BBX 10 15 2 0
BITMAP
ff00
8780
8180
80c0
80c0
80c0
8180
ff00
8180
80c0
8040
80c0
80c0
8180
ff00
ENDCHAR
STARTCHAR C
ENCODING 67
SWIDTH 420 0
DWIDTH 14 0
BBX 12 16 1 0
BITMAP
0f80
1fc0
3fc0
30e0
6030
6030
c000
c000
8000
8000
c000
c030
6030
6060
30e0
1fc0
ENDCHAR
STARTCHAR D
ENCODING 68
SWIDTH 420 0
DWIDTH 14 0
BBX 11 15 2 0
BITMAP
ff00
8180
80c0
80c0
8060
8060
8020
8020
8020
8060
8060
8040
80c0
8380
ff00
ENDCHAR
STARTCHAR E
ENCODING 69
SWIDTH 390 0
DWIDTH 13 0
BBX 10 15 2 0
BITMAP
ffc0
8000
8000
8000
8000
8000
8000
ffc0
8000
8000
8000
8000
8000
8000
ffc0
ENDCHAR
STARTCHAR F
ENCODING 70
SWIDTH 360 0
DWIDTH 12 0
BBX 10 15 2 0
BITMAP
ffc0
8000
8000
8000
8000
8000
8000
ff80
8000
8000
8000
8000
8000
8000
8000
ENDCHAR
STARTCHAR G
ENCODING 71
SWIDTH 480 0
DWIDTH 16 0
BBX 13 16 1 0
BITMAP
0fc0
3ce0
3c60
7030
6030
6018
c000
c000
8000
81f8
8018
c018
6018
6038
3878
1fc8
ENDCHAR
STARTCHAR H
ENCODING 72
SWIDTH 420 0
DWIDTH 14 0
BBX 10 15 2 0
BITMAP
8040
8040
8040
8040
8040
8040
8040
ffc0
8040
8040
8040
8040
8040
8040
8040
ENDCHAR
STARTCHAR I
ENCODING 73
SWIDTH 180 0
DWIDTH 6 0
BBX 1 15 2 0
BITMAP
80
80
80
80
80
80
80
80
80
80
80
80
80
80
80
ENDCHAR
STARTCHAR J
ENCODING 74
SWIDTH 300 0
DWIDTH 10 0
BBX 7 15 1 0
BITMAP
02
02
02
02
02
02
02
02
02
02
82
82
86
cc
7c
ENDCHAR
STARTCHAR K
ENCODING 75
SWIDTH 390 0
DWIDTH 13 0
BBX 11 15 2 0
BITMAP
80e0
81c0
8380
8300
c600
cc00
d800
fc00
ee00
c600
8300
8380
8180
80c0
8060
ENDCHAR
STARTCHAR L
ENCODING 76
SWIDTH 330 0
DWIDTH 11 0
BBX 9 15 2 0
BITMAP
8000
8000
8000
8000
8000
8000
8000
8000
8000
8000
8000
8000
8000
8000
ff80
ENDCHAR
STARTCHAR M
ENCODING 77
SWIDTH 510 0
DWIDTH 17 0
BBX 13 15 2 0
BITMAP
c038
e038
e038
e078
f078
b058
b0d8
98d8
9898
9988
8d88
8d08
8f08
8708
8608
ENDCHAR
STARTCHAR N
ENCODING 78
SWIDTH 420 0
DWIDTH 14 0
BBX 10 15 2 0
BITMAP
c040
e040
e040
f040
b040
b840
9c40
8c40
8e40
8640
8340
83c0
81c0
80c0
80c0
ENDCHAR
STARTCHAR O
ENCODING 79
SWIDTH 480 0
DWIDTH 16 0
BBX 13 16 1 0
BITMAP
0f80
3de0
3cf0
7070
6030
4010
c008
8008
8008
8008
c008
c018
6010
6030
3070
1fc0
ENDCHAR
STARTCHAR P
ENCODING 80
SWIDTH 390 0
DWIDTH 13 0
BBX 10 15 2 0
BITMAP
ff00
8180
81c0
80c0
80c0
80c0
80c0
8180
ff00
8000
8000
8000
8000
8000
8000
ENDCHAR
STARTCHAR Q
ENCODING 81
SWIDTH 480 0
DWIDTH 16 0
BBX 13 17 1 -1
BITMAP
0f80
3de0
3cf0
7070
6030
4010
c008
8008
8008
8008
c008
c018
6090
60f0
3070
1ff0
0008
ENDCHAR
STARTCHAR R
ENCODING 82
SWIDTH 420 0
DWIDTH 14 0
BBX 12 15 2 0
BITMAP
ff00
80c0
8040
8060
8060
8040
80c0
ff80
8080
80c0
8040
8040
8040
8060
8070
ENDCHAR
STARTCHAR S
ENCODING 83
SWIDTH 390 0
DWIDTH 13 0
BBX 11 16 1 0
BITMAP
1f00
3bc0
73c0
60c0
4040
4040
6000
7800
3f80
07c0
0060
c020
c020
c060
70c0
3f80
ENDCHAR
STARTCHAR T
ENCODING 84
SWIDTH 360 0
DWIDTH 12 0
BBX 12 15 0 0
BITMAP
fff0
0200
0200
0200
0200
0200
0200
0200
0200
0200
0200
0200
0200
0200
0200
ENDCHAR
STARTCHAR U
ENCODING 85
SWIDTH 420 0
DWIDTH 14 0
BBX 10 15 2 0
BITMAP
8040
8040
8040
8040
8040
8040
8040
8040
8040
8040
8040
8040
c0c0
6180
3f00
ENDCHAR
STARTCHAR V
ENCODING 86
SWIDTH 390 0
DWIDTH 13 0
BBX 12 15 1 0
BITMAP
c030
4030
6060
6060
2060
30c0
30c0
1080
1980
1980
0900
0f00
0f00
0600
0600
ENDCHAR
STARTCHAR W
ENCODING 87
SWIDTH 570 0
DWIDTH 19 0
BBX 18 15 0 0
BITMAP
c0c0c0
c0c0c0
61e180
61e180
61e180
612180
233300
333300
323300
361300
161a00
1e1e00
1c0e00
1c0e00
0c0c00
ENDCHAR
STARTCHAR X
ENCODING 88
SWIDTH 390 0
DWIDTH 13 0
BBX 13 15 0 0
BITMAP
6030
7070
3060
18e0
1dc0
0d80
0f80
0700
0f80
0d80
1cc0
38e0
3060
6070
e038
ENDCHAR
STARTCHAR Y
ENCODING 89
SWIDTH 390 0
DWIDTH 13 0
BBX 13 15 0 0
BITMAP
6018
6030
3030
3860
1840
0cc0
0d80
0700
0700
0200
0200
0200
0200
0200
0200
ENDCHAR
STARTCHAR Z
ENCODING 90
SWIDTH 360 0
DWIDTH 12 0
BBX 11 15 1 0
BITMAP
7fe0
00e0
00e0
01c0
0380
0380
0700
0e00
0c00
1c00
3800
3000
6000
e000
ffe0
ENDCHAR
STARTCHAR bracketleft
ENCODING 91
SWIDTH 180 0
DWIDTH 6 0
BBX 3 19 2 -4
BITMAP
e0
80
80
80
80
80
80
80
80
80
80
80
80
80
80
80
80
80
e0
ENDCHAR
STARTCHAR backslash
ENCODING 92
SWIDTH 180 0
DWIDTH 6 0
BBX 6 15 0 0
BITMAP
80
c0
40
40
60
20
20
30
10
10
10
08
08
08
04
ENDCHAR
STARTCHAR bracketright
ENCODING 93
SWIDTH 180 0
DWIDTH 6 0
BBX 4 19 0 -4
BITMAP
f0
10
10
10
10
10
10
10
10
10
10
10
10
10
10
10
10
10
f0
ENDCHAR
STARTCHAR asciicircum
ENCODING 94
SWIDTH 270 0
DWIDTH 9 0
BBX 8 7 1 7
BITMAP
18
3c
34
24
66
42
c3
ENDCHAR
STARTCHAR underscore
ENCODING 95
SWIDTH 330 0
DWIDTH 11 0
BBX 12 1 0 -3
BITMAP
fff0
ENDCHAR
STARTCHAR grave
ENCODING 96
SWIDTH 180 0
DWIDTH 6 0
BBX 6 5 0 3
BITMAP
78
fc
fc
fc
78
ENDCHAR
STARTCHAR a
ENCODING 97
SWIDTH 330 0
DWIDTH 11 0
BBX 10 11 1 0
BITMAP
3e00
7e00
c100
c100
0100
3f00
f300
c100
c100
c700
7dc0
ENDCHAR
STARTCHAR b
ENCODING 98
SWIDTH 330 0
DWIDTH 11 0
BBX 9 15 1 0
BITMAP
8000
8000
8000
8000
de00
f300
e380
c180
c180
8080
8180
c180
c180
e300
bf00
ENDCHAR
STARTCHAR c
ENCODING 99
SWIDTH 300 0
DWIDTH 10 0
BBX 9 11 1 0
BITMAP
1c00
3e00
6300
c100
8000
8000
8000
8100
c100
6300
7e00
ENDCHAR
STARTCHAR d
ENCODING 100
SWIDTH 330 0
DWIDTH 11 0
BBX 9 15 1 0
BITMAP
0080
0080
0080
0080
3c80
6780
c380
c180
c180
8080
8080
c180
c180
6380
7e80
ENDCHAR
STARTCHAR e
ENCODING 101
SWIDTH 330 0
DWIDTH 11 0
BBX 9 11 1 0
BITMAP
1c00
3f00
4100
c180
c080
ff80
8000
8000
c180
6300
3e00
ENDCHAR
STARTCHAR f
ENCODING 102
SWIDTH 180 0
DWIDTH 6 0
BBX 5 16 0 0
BITMAP
18
38
38
20
20
20
f8
20
20
20
20
20
20
20
20
20
ENDCHAR
STARTCHAR g
ENCODING 103
SWIDTH 330 0
DWIDTH 11 0
BBX 8 15 1 -4
BITMAP
3f
67
c3
c1
c1
81
81
c1
c1
e3
7d
01
c1
e2
7c
ENDCHAR
STARTCHAR h
ENCODING 104
SWIDTH 330 0
DWIDTH 11 0
BBX 7 15 2 0
BITMAP
80
80
80
80
dc
fe
c2
82
82
82
82
82
82
82
82
ENDCHAR
STARTCHAR i
ENCODING 105
SWIDTH 120 0
DWIDTH 4 0
BBX 1 15 2 0
BITMAP
80
80
00
00
00
80
80
80
80
80
80
80
80
80
80
ENDCHAR
STARTCHAR j
ENCODING 106
SWIDTH 120 0
DWIDTH 4 0
BBX 3 19 0 -4
BITMAP
20
20
00
00
00
20
20
20
20
20
20
20
20
20
20
20
20
60
e0
ENDCHAR
STARTCHAR k
ENCODING 107
SWIDTH 300 0
DWIDTH 10 0
BBX 9 15 1 0
BITMAP
8000
8000
8000
8000
8000
8600
8c00
d800
f800
ec00
cc00
8600
8600
8300
8180
ENDCHAR
STARTCHAR l
ENCODING 108
SWIDTH 120 0
DWIDTH 4 0
BBX 1 15 2 0
BITMAP
80
80
80
80
80
80
80
80
80
80
80
80
80
80
80
ENDCHAR
STARTCHAR m
ENCODING 109
SWIDTH 510 0
DWIDTH 17 0
BBX 13 11 2 0
BITMAP
bcf0
e698
c308
8208
8208
8208
8208
8208
8208
8208
8208
ENDCHAR
STARTCHAR n
ENCODING 110
SWIDTH 330 0
DWIDTH 11 0
BBX 7 11 2 0
BITMAP
bc
fe
c2
82
82
82
82
82
82
82
82
ENDCHAR
STARTCHAR o
ENCODING 111
SWIDTH 330 0
DWIDTH 11 0
BBX 9 11 1 0
BITMAP
3e00
7f00
e300
c180
c180
8080
c080
c180
c180
6300
3e00
ENDCHAR
STARTCHAR p
ENCODING 112
SWIDTH 330 0
DWIDTH 11 0
BBX 9 15 1 -4
BITMAP
9e00
bf00
e380
c180
8180
8080
8080
c180
c180
f380
ff00
8000
8000
8000
8000
ENDCHAR
STARTCHAR q
ENCODING 113
SWIDTH 330 0
DWIDTH 11 0
BBX 9 15 1 -4
BITMAP
3c80
7f80
6380
c180
8080
8080
8180
8180
c180
6780
3f80
0080
0080
0080
0080
ENDCHAR
STARTCHAR r
ENCODING 114
SWIDTH 210 0
DWIDTH 7 0
BBX 4 11 2 0
BITMAP
b0
b0
c0
80
80
80
80
80
80
80
80
ENDCHAR
STARTCHAR s
ENCODING 115
SWIDTH 300 0
DWIDTH 10 0
BBX 8 11 1 0
BITMAP
3c
66
83
c0
40
7c
0e
01
81
c3
7e
ENDCHAR
STARTCHAR t
ENCODING 116
SWIDTH 180 0
DWIDTH 6 0
BBX 5 13 0 0
BITMAP
20
20
20
f8
20
20
20
20
20
20
20
20
38
ENDCHAR
STARTCHAR u
ENCODING 117
SWIDTH 330 0
DWIDTH 11 0
BBX 7 10 2 0
BITMAP
82
82
82
82
82
82
82
86
ce
7a
ENDCHAR
STARTCHAR v
ENCODING 118
SWIDTH 300 0
DWIDTH 10 0
BBX 10 10 0 0
BITMAP
c0c0
61c0
6180
6180
3300
3300
3600
1600
1e00
1c00
ENDCHAR
STARTCHAR w
ENCODING 119
SWIDTH 420 0
DWIDTH 14 0
BBX 14 10 0 0
BITMAP
c30c
c30c
6798
6798
6498
2c90
3cf0
3cf0
1860
1860
ENDCHAR
STARTCHAR x
ENCODING 120
SWIDTH 300 0
DWIDTH 10 0
BBX 9 10 0 0
BITMAP
4180
6300
3600
1c00
0c00
1c00
3600
3600
6300
c180
ENDCHAR
STARTCHAR y
ENCODING 121
SWIDTH 300 0
DWIDTH 10 0
BBX 9 14 0 -4
BITMAP
c180
4180
6300
6300
2200
3600
3600
1c00
1c00
1800
1800
1800
3000
6000
ENDCHAR
STARTCHAR z
ENCODING 122
SWIDTH 300 0
DWIDTH 10 0
BBX 8 10 1 0
BITMAP
ff
06
06
0c
18
30
30
60
c0
ff
ENDCHAR
STARTCHAR braceleft
ENCODING 123
SWIDTH 210 0
DWIDTH 7 0
BBX 5 20 1 -4
BITMAP
18
18
38
20
20
20
20
20
20
60
c0
c0
60
20
20
20
20
20
20
18
ENDCHAR
STARTCHAR bar
ENCODING 124
SWIDTH 150 0
DWIDTH 5 0
BBX 1 19 2 -4
BITMAP
80
80
80
80
80
80
80
80
80
80
80
80
80
80
80
80
80
80
80
ENDCHAR
STARTCHAR braceright
ENCODING 125
SWIDTH 210 0
DWIDTH 7 0
BBX 4 20 1 -4
BITMAP
80
80
c0
40
40
40
40
40
40
60
30
30
60
40
40
40
40
40
40
80
ENDCHAR
STARTCHAR asciitilde
ENCODING 126
SWIDTH 360 0
DWIDTH 12 0
BBX 9 4 1 5
BITMAP
6000
f880
8f80
0300
ENDCHAR
STARTCHAR exclamdown
ENCODING 161
SWIDTH 360 0
DWIDTH 12 0
BBX 9 11 1 0
BITMAP
3e00
4180
6080
2080
4080
4080
4080
4080
4080
4080
4080
ENDCHAR
STARTCHAR cent
ENCODING 162
SWIDTH 360 0
DWIDTH 12 0
BBX 9 11 1 0
BITMAP
7880
9480
9480
e480
0c80
0880
0880
0880
0880
0880
1f80
ENDCHAR
STARTCHAR sterling
ENCODING 163
SWIDTH 390 0
DWIDTH 13 0
BBX 11 11 0 0
BITMAP
3f20
4120
f320
da20
da20
7220
0220
0220
0220
0220
0fe0
ENDCHAR
STARTCHAR currency
ENCODING 164
SWIDTH 360 0
DWIDTH 12 0
BBX 9 12 1 0
BITMAP
3e00
6300
4180
9c80
b480
b480
7c80
6080
2080
2080
2080
2080
ENDCHAR
STARTCHAR yen
ENCODING 165
SWIDTH 360 0
DWIDTH 12 0
BBX 9 11 1 0
BITMAP
3700
4880
9c80
b480
b480
fc80
6080
2080
2080
2080
2080
ENDCHAR
STARTCHAR brokenbar
ENCODING 166
SWIDTH 450 0
DWIDTH 15 0
BBX 13 11 0 0
BITMAP
3f08
4108
7308
4a08
4a08
3208
0788
0a68
1a38
1a08
0e08
ENDCHAR
STARTCHAR section
ENCODING 167
SWIDTH 300 0
DWIDTH 10 0
BBX 8 11 0 0
BITMAP
0f
09
0f
47
41
61
21
11
19
09
07
ENDCHAR
STARTCHAR diaeresis
ENCODING 168
SWIDTH 330 0
DWIDTH 11 0
BBX 8 11 1 0
BITMAP
3e
c1
01
3d
25
27
1b
01
01
01
01
ENDCHAR
STARTCHAR copyright
ENCODING 169
SWIDTH 390 0
DWIDTH 13 0
BBX 12 11 1 0
BITMAP
1e00
6180
0080
e080
9080
9080
f1c0
16a0
1890
10b0
10e0
ENDCHAR
STARTCHAR ordfeminine
ENCODING 170
SWIDTH 360 0
DWIDTH 12 0
BBX 11 12 1 0
BITMAP
1060
fcc0
9700
9700
e480
0c80
0880
0880
0880
0880
0880
1f80
ENDCHAR
STARTCHAR guillemotleft
ENCODING 171
SWIDTH 390 0
DWIDTH 13 0
BBX 13 12 0 0
BITMAP
1210
7e30
41c0
f360
da20
da20
7220
0220
0220
0220
0220
0fe0
ENDCHAR
STARTCHAR notsign
ENCODING 172
SWIDTH 480 0
DWIDTH 16 0
BBX 13 11 1 0
BITMAP
3e08
c108
3108
6108
4108
4108
4108
73c8
4b78
4b18
3308
ENDCHAR
STARTCHAR hyphen
ENCODING 173
SWIDTH 480 0
DWIDTH 16 0
BBX 13 17 1 -6
BITMAP
3e08
c108
3108
6108
4108
4108
4108
7108
4908
4908
33f0
0000
0388
0288
0290
03b0
00c0
ENDCHAR
STARTCHAR registered
ENCODING 174
SWIDTH 390 0
DWIDTH 13 0
BBX 11 17 1 -6
BITMAP
1f80
20c0
3860
1820
2020
2020
2020
e020
a020
a020
e020
0220
3e20
4720
45a0
7ce0
3020
ENDCHAR
STARTCHAR macron
ENCODING 175
SWIDTH 390 0
DWIDTH 13 0
BBX 11 17 1 -6
BITMAP
1f80
20c0
3860
1820
2020
2020
2020
e020
a020
a020
e020
0420
0420
7ca0
4da0
5e60
3220
ENDCHAR
STARTCHAR degree
ENCODING 176
SWIDTH 330 0
DWIDTH 11 0
BBX 11 17 0 -6
BITMAP
1fc0
3040
1f00
0180
1880
2480
2680
1f80
0180
0180
0180
0000
0b80
0a40
7380
9280
7f80
ENDCHAR
STARTCHAR plusminus
ENCODING 177
SWIDTH 480 0
DWIDTH 16 0
BBX 14 11 0 0
BITMAP
3f38
4164
f3c4
da84
da84
7304
0304
0304
0204
0204
0204
ENDCHAR
STARTCHAR twosuperior
ENCODING 178
SWIDTH 510 0
DWIDTH 17 0
BBX 14 11 1 0
BITMAP
3704
4884
8884
9484
9284
9c84
4c84
59e4
32b4
328c
2184
ENDCHAR
STARTCHAR threesuperior
ENCODING 179
SWIDTH 480 0
DWIDTH 16 0
BBX 15 11 1 0
BITMAP
3e08
c108
3108
6108
4108
4108
411c
716a
49ca
498a
310c
ENDCHAR
STARTCHAR acute
ENCODING 180
SWIDTH 360 0
DWIDTH 12 0
BBX 9 12 1 0
BITMAP
1e00
6100
4080
8880
9480
9280
9c80
4c80
5880
3080
3080
2080
ENDCHAR
STARTCHAR mu
ENCODING 181
SWIDTH 360 0
DWIDTH 12 0
BBX 9 11 1 0
BITMAP
3700
4880
8880
9480
9280
9c80
4c80
5880
3080
3080
2080
ENDCHAR
STARTCHAR paragraph
ENCODING 182
SWIDTH 360 0
DWIDTH 12 0
BBX 9 11 1 0
BITMAP
3e00
4180
6080
2080
4080
4080
4080
7080
4880
4880
3080
ENDCHAR
STARTCHAR periodcentered
ENCODING 183
SWIDTH 360 0
DWIDTH 12 0
BBX 10 11 1 0
BITMAP
f180
9340
b640
7440
1c40
1840
1840
1040
1040
1040
1040
ENDCHAR
STARTCHAR cedilla
ENCODING 184
SWIDTH 330 0
DWIDTH 11 0
BBX 9 11 1 0
BITMAP
7f00
c080
3c00
0600
2300
2100
2100
2100
2100
2300
7f00
ENDCHAR
STARTCHAR onesuperior
ENCODING 185
SWIDTH 390 0
DWIDTH 13 0
BBX 12 11 1 0
BITMAP
f080
9080
b080
7080
1080
1080
11e0
16b0
1490
1890
10e0
ENDCHAR
STARTCHAR masculine
ENCODING 186
SWIDTH 390 0
DWIDTH 13 0
BBX 10 11 1 0
BITMAP
f040
9040
b040
7040
1040
1040
1040
1040
1040
1040
7fc0
ENDCHAR
STARTCHAR guillemotright
ENCODING 187
SWIDTH 390 0
DWIDTH 13 0
BBX 10 15 1 0
BITMAP
0040
0040
0040
0040
f040
9040
b040
7040
1040
1040
1040
1040
1040
1040
7fc0
ENDCHAR
STARTCHAR onequarter
ENCODING 188
SWIDTH 360 0
DWIDTH 12 0
BBX 9 11 2 0
BITMAP
6080
9080
b080
e080
8080
8880
9480
a680
c380
8180
8080
ENDCHAR
STARTCHAR onehalf
ENCODING 189
SWIDTH 360 0
DWIDTH 12 0
BBX 9 15 2 0
BITMAP
0080
0080
0080
0080
e080
9080
b080
e080
8080
8880
9480
a680
c380
8180
8080
ENDCHAR
STARTCHAR threequarters
ENCODING 190
SWIDTH 420 0
DWIDTH 14 0
BBX 12 11 1 0
BITMAP
f110
9110
b310
7290
1490
14d0
1470
1870
1830
1030
1010
ENDCHAR
STARTCHAR questiondown
ENCODING 191
SWIDTH 420 0
DWIDTH 14 0
BBX 12 15 1 0
BITMAP
0010
0010
0010
0010
f110
9310
b390
7290
14d0
14d0
1470
1870
1830
1030
1010
ENDCHAR
STARTCHAR Agrave
ENCODING 192
SWIDTH 390 0
DWIDTH 13 0
BBX 11 11 1 0
BITMAP
1f80
20c0
3860
1820
2020
2020
2020
e020
a020
a020
e020
ENDCHAR
STARTCHAR Aacute
ENCODING 193
SWIDTH 390 0
DWIDTH 13 0
BBX 10 11 1 0
BITMAP
7040
9040
d040
7040
1040
1040
7c40
d740
91c0
90c0
7040
ENDCHAR
STARTCHAR Acircumflex
ENCODING 194
SWIDTH 360 0
DWIDTH 12 0
BBX 9 11 1 0
BITMAP
3880
4880
f880
4080
4080
3080
2080
4080
4080
4180
7f80
ENDCHAR
STARTCHAR Atilde
ENCODING 195
SWIDTH 300 0
DWIDTH 10 0
BBX 9 11 1 0
BITMAP
7f00
c100
3c00
0600
0200
0200
0200
0e00
1a00
1200
0e00
ENDCHAR
STARTCHAR Adiaeresis
ENCODING 196
SWIDTH 360 0
DWIDTH 12 0
BBX 9 17 1 -6
BITMAP
3e00
4180
6080
2080
4080
4080
4080
7080
4880
4880
3080
0080
0080
0080
0080
0080
0080
ENDCHAR
STARTCHAR Aring
ENCODING 197
SWIDTH 360 0
DWIDTH 12 0
BBX 9 11 1 0
BITMAP
3e00
c100
0080
3880
4480
4680
4280
7380
4980
4980
3080
ENDCHAR
STARTCHAR AE
ENCODING 198
SWIDTH 390 0
DWIDTH 13 0
BBX 11 17 1 -6
BITMAP
1f80
20c0
3860
1820
2020
2020
2020
e020
a020
a020
e020
0020
0020
0020
0020
0020
0020
ENDCHAR
STARTCHAR Ccedilla
ENCODING 199
SWIDTH 330 0
DWIDTH 11 0
BBX 8 11 1 0
BITMAP
7c
82
01
01
01
01
01
07
09
09
07
ENDCHAR
STARTCHAR Egrave
ENCODING 200
SWIDTH 360 0
DWIDTH 12 0
BBX 11 12 1 0
BITMAP
0c40
7fc0
c180
9d80
b680
b480
fc80
6080
2080
2080
2080
2080
ENDCHAR
STARTCHAR Eacute
ENCODING 201
SWIDTH 390 0
DWIDTH 13 0
BBX 12 11 1 0
BITMAP
f040
9040
b040
7750
1550
1560
13c0
1040
1040
1040
7fc0
ENDCHAR
STARTCHAR Ecircumflex
ENCODING 202
SWIDTH 360 0
DWIDTH 12 0
BBX 9 12 1 0
BITMAP
0080
3f80
c380
0280
3c80
4480
4680
4280
7380
4980
4980
3080
ENDCHAR
STARTCHAR Ediaeresis
ENCODING 203
SWIDTH 390 0
DWIDTH 13 0
BBX 11 11 1 0
BITMAP
f180
9160
b140
7180
1640
1440
1840
1840
1040
1040
1040
ENDCHAR
STARTCHAR Igrave
ENCODING 204
SWIDTH 420 0
DWIDTH 14 0
BBX 14 13 1 0
BITMAP
0074
009c
f1f8
9130
b310
7390
1490
14d0
1470
1870
1830
1030
1030
ENDCHAR
STARTCHAR Iacute
ENCODING 205
SWIDTH 360 0
DWIDTH 12 0
BBX 9 11 1 0
BITMAP
3e00
4180
0080
3080
4880
4880
7080
4080
4080
4080
3f80
ENDCHAR
STARTCHAR Icircumflex
ENCODING 206
SWIDTH 360 0
DWIDTH 12 0
BBX 11 12 1 0
BITMAP
0040
3e40
4180
3e80
0080
3080
4880
4880
7080
4080
4080
7f80
ENDCHAR
STARTCHAR Idiaeresis
ENCODING 207
SWIDTH 330 0
DWIDTH 11 0
BBX 8 11 1 0
BITMAP
71
d1
d1
e3
45
39
01
01
01
02
06
ENDCHAR
STARTCHAR ETH
ENCODING 208
SWIDTH 270 0
DWIDTH 9 0
BBX 7 11 1 0
BITMAP
62
96
fc
30
00
00
00
62
92
94
78
ENDCHAR
STARTCHAR Ntilde
ENCODING 209
SWIDTH 0 0
DWIDTH 0 0
BBX 10 5 -7 13
BITMAP
6040
90c0
9180
7f00
1800
ENDCHAR
STARTCHAR Ograve
ENCODING 210
SWIDTH 300 0
DWIDTH 10 0
BBX 8 11 0 0
BITMAP
3c
43
01
01
01
01
01
01
01
01
01
ENDCHAR
STARTCHAR Oacute
ENCODING 211
SWIDTH 300 0
DWIDTH 10 0
BBX 12 17 -4 0
BITMAP
e000
9000
a000
4000
0000
0000
03c0
0430
0010
0010
0010
0010
0010
0010
0010
0010
0010
ENDCHAR
STARTCHAR Ocircumflex
ENCODING 212
SWIDTH 0 0
DWIDTH 0 0
BBX 9 5 -11 13
BITMAP
1c00
6300
4100
ff80
0080
ENDCHAR
STARTCHAR Otilde
ENCODING 213
SWIDTH 30 0
DWIDTH 1 0
BBX 9 6 -10 13
BITMAP
0080
1c80
6380
4180
ff80
0080
ENDCHAR
STARTCHAR Odiaeresis
ENCODING 214
SWIDTH 0 0
DWIDTH 0 0
BBX 9 6 -10 13
BITMAP
0380
3c80
6380
4100
ff80
0080
ENDCHAR
STARTCHAR multiply
ENCODING 215
SWIDTH 30 0
DWIDTH 1 0
BBX 9 6 -10 13
BITMAP
0480
3c80
6380
c080
ff80
0080
ENDCHAR
STARTCHAR Ooblique
ENCODING 216
SWIDTH 0 0
DWIDTH 0 0
BBX 4 7 -6 -8
BITMAP
20
f0
90
f0
10
10
10
ENDCHAR
STARTCHAR Ugrave
ENCODING 217
SWIDTH 0 0
DWIDTH 0 0
BBX 7 8 -9 -9
BITMAP
20
f2
92
f2
12
12
1e
0c
ENDCHAR
STARTCHAR Uacute
ENCODING 218
SWIDTH 0 0
DWIDTH 0 0
BBX 1 2 -3 -4
BITMAP
80
80
ENDCHAR
STARTCHAR Ucircumflex
ENCODING 219
SWIDTH 0 0
DWIDTH 0 0
BBX 1 2 -3 -8
BITMAP
80
80
ENDCHAR
STARTCHAR Udiaeresis
ENCODING 220
SWIDTH 0 0
DWIDTH 0 0
BBX 1 1 0 0
BITMAP
00
ENDCHAR
STARTCHAR Yacute
ENCODING 221
SWIDTH 0 0
DWIDTH 0 0
BBX 1 1 0 0
BITMAP
00
ENDCHAR
STARTCHAR THORN
ENCODING 222
SWIDTH 0 0
DWIDTH 0 0
BBX 1 1 0 0
BITMAP
00
ENDCHAR
STARTCHAR ssharp
ENCODING 223
SWIDTH 0 0
DWIDTH 0 0
BBX 1 1 0 0
BITMAP
00
ENDCHAR
STARTCHAR agrave
ENCODING 224
SWIDTH 210 0
DWIDTH 7 0
BBX 4 11 2 0
BITMAP
80
80
80
80
80
80
80
e0
90
90
60
ENDCHAR
STARTCHAR aacute
ENCODING 225
SWIDTH 360 0
DWIDTH 12 0
BBX 9 11 2 0
BITMAP
8400
8400
8400
8400
8400
8400
8400
e700
9480
9480
6380
ENDCHAR
STARTCHAR acircumflex
ENCODING 226
SWIDTH 210 0
DWIDTH 7 0
BBX 8 21 -1 0
BITMAP
10
7f
60
10
08
08
08
08
08
08
08
08
08
08
08
08
08
0e
09
09
06
ENDCHAR
STARTCHAR atilde
ENCODING 227
SWIDTH 210 0
DWIDTH 7 0
BBX 8 21 -1 0
BITMAP
20
d8
e8
a8
e8
08
08
08
08
08
08
08
08
08
08
08
08
0e
09
09
06
ENDCHAR
STARTCHAR adiaeresis
ENCODING 228
SWIDTH 240 0
DWIDTH 8 0
BBX 9 21 -1 0
BITMAP
4400
cc00
5400
5400
5400
3400
2400
0400
0400
0400
0400
0400
0400
0400
0400
0400
0400
0700
0480
0480
0380
ENDCHAR
STARTCHAR aring
ENCODING 229
SWIDTH 300 0
DWIDTH 10 0
BBX 8 17 0 -6
BITMAP
3c
43
01
01
01
01
01
01
01
01
01
01
01
01
01
01
01
ENDCHAR
STARTCHAR ae
ENCODING 230
SWIDTH 390 0
DWIDTH 13 0
BBX 8 16 3 -5
BITMAP
3e
41
41
79
49
71
01
01
01
01
01
01
01
03
06
04
ENDCHAR
STARTCHAR ccedilla
ENCODING 231
SWIDTH 0 0
DWIDTH 0 0
BBX 8 7 -9 13
BITMAP
01
01
7e
80
b6
ca
46
ENDCHAR
STARTCHAR egrave
ENCODING 232
SWIDTH 0 0
DWIDTH 0 0
BBX 1 3 -3 21
BITMAP
80
80
80
ENDCHAR
STARTCHAR eacute
ENCODING 233
SWIDTH 0 0
DWIDTH 0 0
BBX 7 4 -6 20
BITMAP
e2
a2
64
38
ENDCHAR
STARTCHAR ecircumflex
ENCODING 234
SWIDTH 0 0
DWIDTH 0 0
BBX 8 4 -8 20
BITMAP
fd
c5
a6
6c
ENDCHAR
STARTCHAR ediaeresis
ENCODING 235
SWIDTH 0 0
DWIDTH 0 0
BBX 5 4 -5 20
BITMAP
20
f8
20
20
ENDCHAR
STARTCHAR igrave
ENCODING 236
SWIDTH 0 0
DWIDTH 0 0
BBX 6 5 -5 19
BITMAP
0c
70
c0
e0
e0
ENDCHAR
STARTCHAR iacute
ENCODING 237
SWIDTH 0 0
DWIDTH 0 0
BBX 4 4 -6 13
BITMAP
60
90
90
f0
ENDCHAR
STARTCHAR icircumflex
ENCODING 238
SWIDTH 0 0
DWIDTH 0 0
BBX 4 4 -6 16
BITMAP
60
90
90
60
ENDCHAR
STARTCHAR idiaeresis
ENCODING 239
SWIDTH 330 0
DWIDTH 11 0
BBX 11 11 0 0
BITMAP
1f00
60c0
4e40
9f20
9fa0
9fa0
9f20
ce20
4040
3080
1f00
ENDCHAR
STARTCHAR eth
ENCODING 240
SWIDTH 360 0
DWIDTH 12 0
BBX 9 8 1 0
BITMAP
3e00
6100
c080
8080
8080
c080
6100
3f00
ENDCHAR
STARTCHAR ntilde
ENCODING 241
SWIDTH 360 0
DWIDTH 12 0
BBX 10 9 1 -1
BITMAP
1f00
6180
ccc0
9240
9240
ce40
7cc0
1180
0100
ENDCHAR
STARTCHAR ograve
ENCODING 242
SWIDTH 420 0
DWIDTH 14 0
BBX 12 12 1 0
BITMAP
8000
c000
4000
4000
4fe0
5990
5e10
5210
5a10
4410
6030
3fe0
ENDCHAR
STARTCHAR oacute
ENCODING 243
SWIDTH 420 0
DWIDTH 14 0
BBX 11 8 1 0
BITMAP
39c0
4620
c220
c220
f220
ca20
4a20
7260
ENDCHAR
STARTCHAR ocircumflex
ENCODING 244
SWIDTH 420 0
DWIDTH 14 0
BBX 13 13 1 0
BITMAP
0008
0008
0018
0010
0030
3fe0
6000
c600
8900
8900
c600
61e0
3fe0
ENDCHAR
STARTCHAR otilde
ENCODING 245
SWIDTH 420 0
DWIDTH 14 0
BBX 13 13 1 0
BITMAP
0008
0008
0f18
0910
0930
3fe0
6000
c600
8900
8900
c600
61e0
3fe0
ENDCHAR
STARTCHAR odiaeresis
ENCODING 246
SWIDTH 330 0
DWIDTH 11 0
BBX 9 13 1 0
BITMAP
8000
8000
4000
4000
6c00
3f00
2180
0080
3080
2880
4980
3b00
1e00
ENDCHAR
STARTCHAR division
ENCODING 247
SWIDTH 450 0
DWIDTH 15 0
BBX 13 12 1 0
BITMAP
0008
0018
0010
0010
3b90
6ed0
c450
c050
d0d0
68f0
48a0
39c0
ENDCHAR
STARTCHAR oslash
ENCODING 248
SWIDTH 420 0
DWIDTH 14 0
BBX 12 12 1 0
BITMAP
0010
0010
0010
0030
3ff0
70c0
4040
c1e0
d920
5de0
7620
33c0
ENDCHAR
STARTCHAR ugrave
ENCODING 249
SWIDTH 390 0
DWIDTH 13 0
BBX 11 12 1 0
BITMAP
0060
0020
0020
0020
39e0
6fc0
c300
8100
9d80
f480
74c0
3c40
ENDCHAR
STARTCHAR uacute
ENCODING 250
SWIDTH 990 0
DWIDTH 33 0
BBX 32 1 1 5
BITMAP
ffffffff
ENDCHAR
STARTCHAR ucircumflex
ENCODING 251
SWIDTH 510 0
DWIDTH 17 0
BBX 16 1 0 5
BITMAP
ffff
ENDCHAR
STARTCHAR udiaeresis
ENCODING 252
SWIDTH 0 0
DWIDTH 0 0
BBX 4 7 -6 -14
BITMAP
70
90
d0
70
10
10
10
ENDCHAR
STARTCHAR yacute
ENCODING 253
SWIDTH 0 0
DWIDTH 0 0
BBX 7 7 -9 -14
BITMAP
f2
92
d2
72
12
1a
0c
ENDCHAR
STARTCHAR thorn
ENCODING 254
SWIDTH 480 0
DWIDTH 16 0
BBX 14 13 1 0
BITMAP
0f80
3070
4f98
44c8
84c4
8584
8704
8584
84cc
4c68
6018
3030
1fc0
ENDCHAR
STARTCHAR ydiaeresis
ENCODING 255
SWIDTH 0 0
DWIDTH 0 0
BBX 1 1 0 0
BITMAP
00
ENDCHAR
ENDFONT
